<svg xmlns="http://www.w3.org/2000/svg" xmlns:xlink="http://www.w3.org/1999/xlink" width="500" zoomAndPan="magnify" viewBox="0 0 375 374.999991" height="500" preserveAspectRatio="xMidYMid meet" version="1.2"><defs><clipPath id="82a60139bc"><path d="M 231.9375 102.214844 L 264.1875 102.214844 L 264.1875 134.464844 L 231.9375 134.464844 Z M 231.9375 102.214844 "/></clipPath></defs><g id="6f27e214ef"><g style="fill:#191c5d;fill-opacity:1;"><g transform="translate(119.957311, 327.378567)"><path style="stroke:none" d="M 5.703125 -11.28125 L 6.75 -11.28125 L 8.359375 -7.25 L 9.96875 -11.28125 L 11.046875 -11.28125 L 9.0625 -6.4375 L 11.234375 -1.296875 L 15.34375 -11.359375 L 16.5625 -11.359375 L 11.75 0 L 10.75 0 L 8.375 -5.609375 L 5.96875 0 L 4.984375 0 L 0.1875 -11.359375 L 1.390625 -11.359375 L 5.515625 -1.296875 L 7.6875 -6.4375 Z M 5.703125 -11.28125 "/></g></g><g style="fill:#191c5d;fill-opacity:1;"><g transform="translate(137.69886, 327.378567)"><path style="stroke:none" d="M 9.0625 -0.984375 L 9.0625 0 L 1.421875 0 L 1.421875 -11.359375 L 8.90625 -11.359375 L 8.90625 -10.375 L 2.546875 -10.375 L 2.546875 -6.265625 L 8.09375 -6.265625 L 8.09375 -5.328125 L 2.546875 -5.328125 L 2.546875 -0.984375 Z M 9.0625 -0.984375 "/></g></g><g style="fill:#191c5d;fill-opacity:1;"><g transform="translate(148.449377, 327.378567)"><path style="stroke:none" d="M 1.421875 0 L 1.421875 -11.359375 L 2.546875 -11.359375 L 2.546875 -0.984375 L 9.109375 -0.984375 L 9.109375 0 Z M 1.421875 0 "/></g></g><g style="fill:#191c5d;fill-opacity:1;"><g transform="translate(158.783946, 327.378567)"><path style="stroke:none" d="M 1.421875 0 L 1.421875 -11.359375 L 2.546875 -11.359375 L 2.546875 -0.984375 L 9.109375 -0.984375 L 9.109375 0 Z M 1.421875 0 "/></g></g><g style="fill:#191c5d;fill-opacity:1;"><g transform="translate(169.118516, 327.378567)"><path style="stroke:none" d="M 2.546875 -9.296875 L 2.546875 0 L 1.421875 0 L 1.421875 -11.359375 L 2.359375 -11.359375 L 9.8125 -1.890625 L 9.8125 -11.34375 L 10.921875 -11.34375 L 10.921875 0 L 9.890625 0 Z M 2.546875 -9.296875 "/></g></g><g style="fill:#191c5d;fill-opacity:1;"><g transform="translate(182.47667, 327.378567)"><path style="stroke:none" d="M 9.0625 -0.984375 L 9.0625 0 L 1.421875 0 L 1.421875 -11.359375 L 8.90625 -11.359375 L 8.90625 -10.375 L 2.546875 -10.375 L 2.546875 -6.265625 L 8.09375 -6.265625 L 8.09375 -5.328125 L 2.546875 -5.328125 L 2.546875 -0.984375 Z M 9.0625 -0.984375 "/></g></g><g style="fill:#191c5d;fill-opacity:1;"><g transform="translate(193.227186, 327.378567)"><path style="stroke:none" d="M 8.0625 -9.234375 C 7.90625 -9.410156 7.71875 -9.570312 7.5 -9.71875 C 7.289062 -9.863281 7.050781 -9.988281 6.78125 -10.09375 C 6.519531 -10.195312 6.234375 -10.28125 5.921875 -10.34375 C 5.617188 -10.414062 5.296875 -10.453125 4.953125 -10.453125 C 3.960938 -10.453125 3.234375 -10.257812 2.765625 -9.875 C 2.304688 -9.5 2.078125 -8.988281 2.078125 -8.34375 C 2.078125 -7.882812 2.1875 -7.523438 2.40625 -7.265625 C 2.625 -7.015625 2.96875 -6.8125 3.4375 -6.65625 C 3.90625 -6.5 4.503906 -6.332031 5.234375 -6.15625 C 6.046875 -5.988281 6.742188 -5.785156 7.328125 -5.546875 C 7.910156 -5.316406 8.363281 -5 8.6875 -4.59375 C 9.007812 -4.195312 9.171875 -3.65625 9.171875 -2.96875 C 9.171875 -2.445312 9.066406 -1.992188 8.859375 -1.609375 C 8.660156 -1.234375 8.378906 -0.914062 8.015625 -0.65625 C 7.648438 -0.394531 7.21875 -0.203125 6.71875 -0.078125 C 6.21875 0.0351562 5.671875 0.09375 5.078125 0.09375 C 4.484375 0.09375 3.914062 0.0351562 3.375 -0.078125 C 2.84375 -0.203125 2.335938 -0.382812 1.859375 -0.625 C 1.378906 -0.863281 0.929688 -1.171875 0.515625 -1.546875 L 1.078125 -2.46875 C 1.273438 -2.25 1.515625 -2.046875 1.796875 -1.859375 C 2.078125 -1.671875 2.390625 -1.503906 2.734375 -1.359375 C 3.085938 -1.210938 3.460938 -1.097656 3.859375 -1.015625 C 4.265625 -0.929688 4.679688 -0.890625 5.109375 -0.890625 C 6.015625 -0.890625 6.71875 -1.054688 7.21875 -1.390625 C 7.726562 -1.722656 7.984375 -2.210938 7.984375 -2.859375 C 7.984375 -3.328125 7.851562 -3.703125 7.59375 -3.984375 C 7.34375 -4.273438 6.960938 -4.507812 6.453125 -4.6875 C 5.941406 -4.863281 5.3125 -5.039062 4.5625 -5.21875 C 3.769531 -5.394531 3.101562 -5.59375 2.5625 -5.8125 C 2.019531 -6.039062 1.609375 -6.335938 1.328125 -6.703125 C 1.054688 -7.078125 0.921875 -7.566406 0.921875 -8.171875 C 0.921875 -8.878906 1.09375 -9.472656 1.4375 -9.953125 C 1.789062 -10.441406 2.269531 -10.8125 2.875 -11.0625 C 3.488281 -11.3125 4.1875 -11.4375 4.96875 -11.4375 C 5.476562 -11.4375 5.945312 -11.382812 6.375 -11.28125 C 6.8125 -11.1875 7.210938 -11.039062 7.578125 -10.84375 C 7.941406 -10.65625 8.285156 -10.414062 8.609375 -10.125 Z M 8.0625 -9.234375 "/></g></g><g style="fill:#191c5d;fill-opacity:1;"><g transform="translate(203.9457, 327.378567)"><path style="stroke:none" d="M 8.0625 -9.234375 C 7.90625 -9.410156 7.71875 -9.570312 7.5 -9.71875 C 7.289062 -9.863281 7.050781 -9.988281 6.78125 -10.09375 C 6.519531 -10.195312 6.234375 -10.28125 5.921875 -10.34375 C 5.617188 -10.414062 5.296875 -10.453125 4.953125 -10.453125 C 3.960938 -10.453125 3.234375 -10.257812 2.765625 -9.875 C 2.304688 -9.5 2.078125 -8.988281 2.078125 -8.34375 C 2.078125 -7.882812 2.1875 -7.523438 2.40625 -7.265625 C 2.625 -7.015625 2.96875 -6.8125 3.4375 -6.65625 C 3.90625 -6.5 4.503906 -6.332031 5.234375 -6.15625 C 6.046875 -5.988281 6.742188 -5.785156 7.328125 -5.546875 C 7.910156 -5.316406 8.363281 -5 8.6875 -4.59375 C 9.007812 -4.195312 9.171875 -3.65625 9.171875 -2.96875 C 9.171875 -2.445312 9.066406 -1.992188 8.859375 -1.609375 C 8.660156 -1.234375 8.378906 -0.914062 8.015625 -0.65625 C 7.648438 -0.394531 7.21875 -0.203125 6.71875 -0.078125 C 6.21875 0.0351562 5.671875 0.09375 5.078125 0.09375 C 4.484375 0.09375 3.914062 0.0351562 3.375 -0.078125 C 2.84375 -0.203125 2.335938 -0.382812 1.859375 -0.625 C 1.378906 -0.863281 0.929688 -1.171875 0.515625 -1.546875 L 1.078125 -2.46875 C 1.273438 -2.25 1.515625 -2.046875 1.796875 -1.859375 C 2.078125 -1.671875 2.390625 -1.503906 2.734375 -1.359375 C 3.085938 -1.210938 3.460938 -1.097656 3.859375 -1.015625 C 4.265625 -0.929688 4.679688 -0.890625 5.109375 -0.890625 C 6.015625 -0.890625 6.71875 -1.054688 7.21875 -1.390625 C 7.726562 -1.722656 7.984375 -2.210938 7.984375 -2.859375 C 7.984375 -3.328125 7.851562 -3.703125 7.59375 -3.984375 C 7.34375 -4.273438 6.960938 -4.507812 6.453125 -4.6875 C 5.941406 -4.863281 5.3125 -5.039062 4.5625 -5.21875 C 3.769531 -5.394531 3.101562 -5.59375 2.5625 -5.8125 C 2.019531 -6.039062 1.609375 -6.335938 1.328125 -6.703125 C 1.054688 -7.078125 0.921875 -7.566406 0.921875 -8.171875 C 0.921875 -8.878906 1.09375 -9.472656 1.4375 -9.953125 C 1.789062 -10.441406 2.269531 -10.8125 2.875 -11.0625 C 3.488281 -11.3125 4.1875 -11.4375 4.96875 -11.4375 C 5.476562 -11.4375 5.945312 -11.382812 6.375 -11.28125 C 6.8125 -11.1875 7.210938 -11.039062 7.578125 -10.84375 C 7.941406 -10.65625 8.285156 -10.414062 8.609375 -10.125 Z M 8.0625 -9.234375 "/></g></g><g style="fill:#191c5d;fill-opacity:1;"><g transform="translate(214.664214, 327.378567)"><path style="stroke:none" d=""/></g></g><g style="fill:#191c5d;fill-opacity:1;"><g transform="translate(219.751505, 327.378567)"><path style="stroke:none" d="M 8.0625 -9.234375 C 7.90625 -9.410156 7.71875 -9.570312 7.5 -9.71875 C 7.289062 -9.863281 7.050781 -9.988281 6.78125 -10.09375 C 6.519531 -10.195312 6.234375 -10.28125 5.921875 -10.34375 C 5.617188 -10.414062 5.296875 -10.453125 4.953125 -10.453125 C 3.960938 -10.453125 3.234375 -10.257812 2.765625 -9.875 C 2.304688 -9.5 2.078125 -8.988281 2.078125 -8.34375 C 2.078125 -7.882812 2.1875 -7.523438 2.40625 -7.265625 C 2.625 -7.015625 2.96875 -6.8125 3.4375 -6.65625 C 3.90625 -6.5 4.503906 -6.332031 5.234375 -6.15625 C 6.046875 -5.988281 6.742188 -5.785156 7.328125 -5.546875 C 7.910156 -5.316406 8.363281 -5 8.6875 -4.59375 C 9.007812 -4.195312 9.171875 -3.65625 9.171875 -2.96875 C 9.171875 -2.445312 9.066406 -1.992188 8.859375 -1.609375 C 8.660156 -1.234375 8.378906 -0.914062 8.015625 -0.65625 C 7.648438 -0.394531 7.21875 -0.203125 6.71875 -0.078125 C 6.21875 0.0351562 5.671875 0.09375 5.078125 0.09375 C 4.484375 0.09375 3.914062 0.0351562 3.375 -0.078125 C 2.84375 -0.203125 2.335938 -0.382812 1.859375 -0.625 C 1.378906 -0.863281 0.929688 -1.171875 0.515625 -1.546875 L 1.078125 -2.46875 C 1.273438 -2.25 1.515625 -2.046875 1.796875 -1.859375 C 2.078125 -1.671875 2.390625 -1.503906 2.734375 -1.359375 C 3.085938 -1.210938 3.460938 -1.097656 3.859375 -1.015625 C 4.265625 -0.929688 4.679688 -0.890625 5.109375 -0.890625 C 6.015625 -0.890625 6.71875 -1.054688 7.21875 -1.390625 C 7.726562 -1.722656 7.984375 -2.210938 7.984375 -2.859375 C 7.984375 -3.328125 7.851562 -3.703125 7.59375 -3.984375 C 7.34375 -4.273438 6.960938 -4.507812 6.453125 -4.6875 C 5.941406 -4.863281 5.3125 -5.039062 4.5625 -5.21875 C 3.769531 -5.394531 3.101562 -5.59375 2.5625 -5.8125 C 2.019531 -6.039062 1.609375 -6.335938 1.328125 -6.703125 C 1.054688 -7.078125 0.921875 -7.566406 0.921875 -8.171875 C 0.921875 -8.878906 1.09375 -9.472656 1.4375 -9.953125 C 1.789062 -10.441406 2.269531 -10.8125 2.875 -11.0625 C 3.488281 -11.3125 4.1875 -11.4375 4.96875 -11.4375 C 5.476562 -11.4375 5.945312 -11.382812 6.375 -11.28125 C 6.8125 -11.1875 7.210938 -11.039062 7.578125 -10.84375 C 7.941406 -10.65625 8.285156 -10.414062 8.609375 -10.125 Z M 8.0625 -9.234375 "/></g></g><g style="fill:#191c5d;fill-opacity:1;"><g transform="translate(230.470018, 327.378567)"><path style="stroke:none" d="M 9.484375 -10.375 L 5.4375 -10.375 L 5.4375 0 L 4.3125 0 L 4.3125 -10.375 L 0.265625 -10.375 L 0.265625 -11.359375 L 9.484375 -11.359375 Z M 9.484375 -10.375 "/></g></g><g style="fill:#191c5d;fill-opacity:1;"><g transform="translate(241.236524, 327.378567)"><path style="stroke:none" d="M 6.046875 0.078125 C 5.148438 0.078125 4.390625 -0.078125 3.765625 -0.390625 C 3.148438 -0.710938 2.660156 -1.144531 2.296875 -1.6875 C 1.941406 -2.226562 1.679688 -2.835938 1.515625 -3.515625 C 1.347656 -4.203125 1.265625 -4.90625 1.265625 -5.625 L 1.265625 -11.359375 L 2.375 -11.359375 L 2.375 -5.625 C 2.375 -5.039062 2.429688 -4.46875 2.546875 -3.90625 C 2.671875 -3.34375 2.867188 -2.835938 3.140625 -2.390625 C 3.421875 -1.941406 3.796875 -1.582031 4.265625 -1.3125 C 4.734375 -1.050781 5.320312 -0.921875 6.03125 -0.921875 C 6.757812 -0.921875 7.359375 -1.054688 7.828125 -1.328125 C 8.304688 -1.609375 8.679688 -1.972656 8.953125 -2.421875 C 9.222656 -2.867188 9.414062 -3.367188 9.53125 -3.921875 C 9.65625 -4.484375 9.71875 -5.050781 9.71875 -5.625 L 9.71875 -11.359375 L 10.828125 -11.359375 L 10.828125 -5.625 C 10.828125 -4.875 10.738281 -4.148438 10.5625 -3.453125 C 10.394531 -2.765625 10.125 -2.15625 9.75 -1.625 C 9.375 -1.101562 8.878906 -0.6875 8.265625 -0.375 C 7.660156 -0.0703125 6.921875 0.078125 6.046875 0.078125 Z M 6.046875 0.078125 "/></g></g><g style="fill:#191c5d;fill-opacity:1;"><g transform="translate(254.322718, 327.378567)"><path style="stroke:none" d="M 1.421875 0 L 1.421875 -11.359375 L 5.28125 -11.359375 C 6.488281 -11.359375 7.492188 -11.101562 8.296875 -10.59375 C 9.097656 -10.09375 9.703125 -9.410156 10.109375 -8.546875 C 10.515625 -7.691406 10.71875 -6.742188 10.71875 -5.703125 C 10.71875 -4.546875 10.492188 -3.539062 10.046875 -2.6875 C 9.609375 -1.832031 8.976562 -1.171875 8.15625 -0.703125 C 7.34375 -0.234375 6.382812 0 5.28125 0 Z M 9.59375 -5.703125 C 9.59375 -6.609375 9.425781 -7.410156 9.09375 -8.109375 C 8.757812 -8.816406 8.269531 -9.367188 7.625 -9.765625 C 6.988281 -10.171875 6.207031 -10.375 5.28125 -10.375 L 2.546875 -10.375 L 2.546875 -0.984375 L 5.28125 -0.984375 C 6.21875 -0.984375 7.003906 -1.191406 7.640625 -1.609375 C 8.285156 -2.023438 8.769531 -2.585938 9.09375 -3.296875 C 9.425781 -4.015625 9.59375 -4.816406 9.59375 -5.703125 Z M 9.59375 -5.703125 "/></g></g><g style="fill:#191c5d;fill-opacity:1;"><g transform="translate(266.768998, 327.378567)"><path style="stroke:none" d="M 1.421875 0 L 1.421875 -11.359375 L 2.546875 -11.359375 L 2.546875 0 Z M 1.421875 0 "/></g></g><g style="fill:#191c5d;fill-opacity:1;"><g transform="translate(271.744305, 327.378567)"><path style="stroke:none" d="M 6 0.078125 C 5.195312 0.078125 4.46875 -0.078125 3.8125 -0.390625 C 3.164062 -0.710938 2.609375 -1.148438 2.140625 -1.703125 C 1.671875 -2.253906 1.304688 -2.875 1.046875 -3.5625 C 0.796875 -4.25 0.671875 -4.957031 0.671875 -5.6875 C 0.671875 -6.4375 0.800781 -7.15625 1.0625 -7.84375 C 1.332031 -8.53125 1.707031 -9.144531 2.1875 -9.6875 C 2.675781 -10.226562 3.242188 -10.65625 3.890625 -10.96875 C 4.546875 -11.28125 5.253906 -11.4375 6.015625 -11.4375 C 6.816406 -11.4375 7.539062 -11.269531 8.1875 -10.9375 C 8.84375 -10.613281 9.398438 -10.171875 9.859375 -9.609375 C 10.328125 -9.054688 10.6875 -8.4375 10.9375 -7.75 C 11.195312 -7.070312 11.328125 -6.375 11.328125 -5.65625 C 11.328125 -4.90625 11.191406 -4.1875 10.921875 -3.5 C 10.660156 -2.8125 10.289062 -2.195312 9.8125 -1.65625 C 9.332031 -1.113281 8.765625 -0.6875 8.109375 -0.375 C 7.460938 -0.0703125 6.757812 0.078125 6 0.078125 Z M 1.796875 -5.6875 C 1.796875 -5.0625 1.894531 -4.460938 2.09375 -3.890625 C 2.300781 -3.328125 2.585938 -2.820312 2.953125 -2.375 C 3.328125 -1.9375 3.773438 -1.582031 4.296875 -1.3125 C 4.816406 -1.050781 5.382812 -0.921875 6 -0.921875 C 6.644531 -0.921875 7.226562 -1.054688 7.75 -1.328125 C 8.269531 -1.609375 8.710938 -1.972656 9.078125 -2.421875 C 9.441406 -2.878906 9.71875 -3.390625 9.90625 -3.953125 C 10.101562 -4.515625 10.203125 -5.09375 10.203125 -5.6875 C 10.203125 -6.300781 10.097656 -6.890625 9.890625 -7.453125 C 9.691406 -8.015625 9.40625 -8.519531 9.03125 -8.96875 C 8.65625 -9.414062 8.207031 -9.769531 7.6875 -10.03125 C 7.175781 -10.289062 6.613281 -10.421875 6 -10.421875 C 5.363281 -10.421875 4.785156 -10.285156 4.265625 -10.015625 C 3.742188 -9.742188 3.300781 -9.378906 2.9375 -8.921875 C 2.570312 -8.472656 2.289062 -7.96875 2.09375 -7.40625 C 1.894531 -6.84375 1.796875 -6.269531 1.796875 -5.6875 Z M 1.796875 -5.6875 "/></g></g><g style="fill:#191c5d;fill-opacity:1;"><g transform="translate(67.710512, 162.289016)"><path style="stroke:none" d="M 81.46875 -89.734375 L 81.46875 0 L 71.8125 0 L 71.8125 -86.671875 C 67.570312 -84.898438 63.945312 -82.082031 60.9375 -78.21875 C 57.925781 -74.363281 55.40625 -69.832031 53.375 -64.625 C 51.34375 -59.414062 49.734375 -53.863281 48.546875 -47.96875 C 47.359375 -42.082031 46.46875 -36.195312 45.875 -30.3125 C 45.28125 -24.425781 44.878906 -18.875 44.671875 -13.65625 C 44.460938 -8.445312 44.359375 -3.894531 44.359375 0 L 43.078125 0 L 8.765625 -79.046875 L 5.203125 -87.4375 L 5.203125 0 L 4.453125 0 L 4.453125 -89.734375 L 15 -89.734375 L 43.96875 -22.75 C 44.476562 -28.59375 45.238281 -34.628906 46.25 -40.859375 C 47.269531 -47.085938 48.671875 -53.101562 50.453125 -58.90625 C 52.234375 -64.707031 54.519531 -69.9375 57.3125 -74.59375 C 60.113281 -79.257812 63.484375 -82.945312 67.421875 -85.65625 C 71.359375 -88.375 76.039062 -89.734375 81.46875 -89.734375 Z M 81.46875 -89.734375 "/></g></g><g style="fill:#191c5d;fill-opacity:1;"><g transform="translate(150.443367, 162.289016)"><path style="stroke:none" d="M 14.234375 -59.859375 L 14.234375 -1.015625 L 35.71875 -1.015625 C 41.21875 -1.015625 45.722656 -2.367188 49.234375 -5.078125 C 52.753906 -7.796875 55.660156 -12.375 57.953125 -18.8125 L 55.03125 0 L 4.453125 0 L 4.453125 -89.734375 L 55.796875 -89.734375 L 55.796875 -79.5625 C 52.828125 -82.4375 49.941406 -84.53125 47.140625 -85.84375 C 44.347656 -87.164062 41.191406 -87.992188 37.671875 -88.328125 C 34.160156 -88.671875 29.820312 -88.84375 24.65625 -88.84375 L 14.234375 -88.84375 L 14.234375 -68.25 C 14.234375 -62.488281 15.207031 -58.082031 17.15625 -55.03125 C 19.101562 -51.976562 22.023438 -49.921875 25.921875 -48.859375 C 29.828125 -47.804688 34.703125 -47.28125 40.546875 -47.28125 L 40.546875 -37.234375 C 38.679688 -39.359375 36.457031 -41.03125 33.875 -42.25 C 31.289062 -43.476562 28.660156 -44.75 25.984375 -46.0625 C 23.316406 -47.382812 20.921875 -49.082031 18.796875 -51.15625 C 16.679688 -53.226562 15.160156 -56.128906 14.234375 -59.859375 Z M 14.234375 -59.859375 "/></g></g><g style="fill:#191c5d;fill-opacity:1;"><g transform="translate(209.665269, 162.289016)"><path style="stroke:none" d="M 33.421875 0 L 4.453125 0 L 4.453125 -89.734375 L 33.421875 -89.734375 C 39.523438 -89.734375 45.242188 -88.566406 50.578125 -86.234375 C 55.921875 -83.898438 60.644531 -80.675781 64.75 -76.5625 C 68.863281 -72.457031 72.082031 -67.691406 74.40625 -62.265625 C 76.738281 -56.847656 77.90625 -51.003906 77.90625 -44.734375 C 77.90625 -38.546875 76.738281 -32.738281 74.40625 -27.3125 C 72.082031 -21.894531 68.863281 -17.128906 64.75 -13.015625 C 60.644531 -8.910156 55.921875 -5.710938 50.578125 -3.421875 C 45.242188 -1.140625 39.523438 0 33.421875 0 Z M 14.359375 -88.84375 L 14.359375 -1.015625 L 33.421875 -1.015625 C 38.253906 -1.015625 42.785156 -2.132812 47.015625 -4.375 C 51.253906 -6.625 54.984375 -9.757812 58.203125 -13.78125 C 61.421875 -17.8125 63.941406 -22.453125 65.765625 -27.703125 C 67.585938 -32.960938 68.5 -38.640625 68.5 -44.734375 C 68.5 -50.835938 67.585938 -56.535156 65.765625 -61.828125 C 63.941406 -67.128906 61.421875 -71.8125 58.203125 -75.875 C 54.984375 -79.9375 51.253906 -83.113281 47.015625 -85.40625 C 42.785156 -87.695312 38.253906 -88.84375 33.421875 -88.84375 Z M 14.359375 -88.84375 "/></g></g><g style="fill:#191c5d;fill-opacity:1;"><g transform="translate(288.839718, 162.289016)"><path style="stroke:none" d="M 4.453125 0 L 4.453125 -89.734375 L 13.984375 -89.734375 L 13.984375 0 Z M 4.453125 0 "/></g></g><g style="fill:#191c5d;fill-opacity:1;"><g transform="translate(33.276885, 302.733438)"><path style="stroke:none" d="M 38.125 -87.3125 C 32.707031 -85.789062 28.257812 -83.164062 24.78125 -79.4375 C 21.3125 -75.707031 18.707031 -71.34375 16.96875 -66.34375 C 15.226562 -61.34375 14.296875 -56.128906 14.171875 -50.703125 C 14.046875 -45.285156 14.578125 -40.160156 15.765625 -35.328125 C 17.117188 -30.503906 19.210938 -25.78125 22.046875 -21.15625 C 24.890625 -16.539062 28.300781 -12.492188 32.28125 -9.015625 C 36.257812 -5.546875 40.6875 -3.085938 45.5625 -1.640625 C 50.4375 -0.203125 55.582031 -0.207031 61 -1.65625 C 65.75 -2.925781 69.710938 -5.0625 72.890625 -8.0625 C 76.066406 -11.070312 78.585938 -14.628906 80.453125 -18.734375 C 82.316406 -22.847656 83.546875 -27.195312 84.140625 -31.78125 L 84.140625 -15.625 C 78.378906 -8.34375 70.753906 -3.472656 61.265625 -1.015625 C 55.160156 0.765625 49.179688 1.25 43.328125 0.4375 C 37.484375 -0.363281 32.0625 -2.242188 27.0625 -5.203125 C 22.070312 -8.171875 17.734375 -12.003906 14.046875 -16.703125 C 10.359375 -21.410156 7.664062 -26.773438 5.96875 -32.796875 C 4.445312 -38.804688 4.109375 -44.753906 4.953125 -50.640625 C 5.804688 -56.535156 7.691406 -62.046875 10.609375 -67.171875 C 13.535156 -72.296875 17.304688 -76.675781 21.921875 -80.3125 C 26.535156 -83.957031 31.851562 -86.585938 37.875 -88.203125 C 43.550781 -89.722656 48.613281 -90.378906 53.0625 -90.171875 C 57.507812 -89.960938 61.382812 -89.222656 64.6875 -87.953125 C 67.988281 -86.679688 70.738281 -85.257812 72.9375 -83.6875 C 75.144531 -82.125 76.78125 -80.75 77.84375 -79.5625 C 78.90625 -78.375 79.4375 -77.78125 79.4375 -77.78125 L 79.4375 -64.5625 C 79.4375 -64.5625 79.050781 -65.28125 78.28125 -66.71875 C 77.519531 -68.164062 76.378906 -69.96875 74.859375 -72.125 C 73.335938 -74.28125 71.429688 -76.503906 69.140625 -78.796875 C 66.847656 -81.085938 64.175781 -83.117188 61.125 -84.890625 C 58.082031 -86.671875 54.65625 -87.835938 50.84375 -88.390625 C 47.03125 -88.941406 42.789062 -88.582031 38.125 -87.3125 Z M 38.125 -87.3125 "/></g></g><g style="fill:#191c5d;fill-opacity:1;"><g transform="translate(118.678552, 302.733438)"><path style="stroke:none" d="M 66.21875 0 L 51.859375 -34.4375 C 46.429688 -33.9375 41.957031 -32.835938 38.4375 -31.140625 C 34.925781 -29.441406 32.085938 -27.382812 29.921875 -24.96875 C 27.765625 -22.5625 26.03125 -20.039062 24.71875 -17.40625 C 23.40625 -14.78125 22.238281 -12.328125 21.21875 -10.046875 C 20.039062 -6.910156 18.75 -4.300781 17.34375 -2.21875 C 15.945312 -0.144531 13.8125 0.847656 10.9375 0.765625 C 10.59375 0.679688 10.269531 0.59375 9.96875 0.5 C 9.675781 0.414062 9.316406 0.207031 8.890625 -0.125 C 5.421875 -1.65625 4.023438 -5.34375 4.703125 -11.1875 C 5.035156 -13.976562 5.644531 -17.128906 6.53125 -20.640625 C 7.425781 -24.160156 8.640625 -27.957031 10.171875 -32.03125 C 12.453125 -38.125 15.140625 -44.582031 18.234375 -51.40625 C 21.328125 -58.226562 24.585938 -64.960938 28.015625 -71.609375 C 31.453125 -78.265625 34.78125 -84.304688 38 -89.734375 L 38.890625 -89.734375 L 76.890625 0 Z M 51.46875 -35.328125 L 32.796875 -78.796875 C 28.890625 -71.335938 24.96875 -63.476562 21.03125 -55.21875 C 17.09375 -46.957031 13.769531 -39.144531 11.0625 -31.78125 C 9.53125 -27.707031 8.316406 -23.929688 7.421875 -20.453125 C 6.535156 -16.984375 5.925781 -13.894531 5.59375 -11.1875 C 5.507812 -8.5625 5.71875 -6.335938 6.21875 -4.515625 C 6.726562 -2.691406 7.75 -1.523438 9.28125 -1.015625 C 9.695312 -0.929688 10.007812 -0.847656 10.21875 -0.765625 C 10.4375 -0.679688 10.71875 -0.550781 11.0625 -0.375 C 13.601562 -0.207031 15.507812 -1.097656 16.78125 -3.046875 C 18.050781 -4.992188 19.191406 -7.410156 20.203125 -10.296875 C 21.222656 -12.671875 22.410156 -15.191406 23.765625 -17.859375 C 25.117188 -20.523438 26.914062 -23.085938 29.15625 -25.546875 C 31.40625 -28.003906 34.3125 -30.117188 37.875 -31.890625 C 41.4375 -33.671875 45.96875 -34.816406 51.46875 -35.328125 Z M 51.46875 -35.328125 "/></g></g><g style="fill:#191c5d;fill-opacity:1;"><g transform="translate(196.836308, 302.733438)"><path style="stroke:none" d="M 40.421875 -49.5625 C 44.828125 -48.550781 48.382812 -46.601562 51.09375 -43.71875 C 53.800781 -40.84375 56.066406 -37.453125 57.890625 -33.546875 C 59.710938 -29.648438 61.472656 -25.710938 63.171875 -21.734375 C 64.773438 -18.085938 66.425781 -14.675781 68.125 -11.5 C 69.820312 -8.320312 71.726562 -5.78125 73.84375 -3.875 C 75.957031 -1.96875 78.414062 -1.015625 81.21875 -1.015625 L 81.21875 0 C 74.601562 0 69.367188 -0.890625 65.515625 -2.671875 C 61.660156 -4.453125 58.757812 -6.800781 56.8125 -9.71875 C 54.863281 -12.644531 53.460938 -15.84375 52.609375 -19.3125 C 51.765625 -22.789062 51.109375 -26.265625 50.640625 -29.734375 C 50.179688 -33.210938 49.503906 -36.410156 48.609375 -39.328125 C 47.722656 -42.253906 46.238281 -44.609375 44.15625 -46.390625 C 42.082031 -48.171875 39.015625 -49.0625 34.953125 -49.0625 C 28.515625 -49.0625 23.347656 -52.109375 19.453125 -58.203125 C 17.242188 -61.765625 15.585938 -66.128906 14.484375 -71.296875 L 14.484375 0 L 4.453125 0 L 4.453125 -89.859375 L 26.8125 -89.859375 C 33.082031 -89.859375 38.78125 -89.175781 43.90625 -87.8125 C 49.03125 -86.457031 53.140625 -84.316406 56.234375 -81.390625 C 59.328125 -78.472656 60.875 -74.601562 60.875 -69.78125 C 60.875 -65.625 59.941406 -62.125 58.078125 -59.28125 C 56.210938 -56.445312 53.734375 -54.242188 50.640625 -52.671875 C 47.554688 -51.109375 44.148438 -50.070312 40.421875 -49.5625 Z M 50.84375 -69.78125 C 50.84375 -74.601562 49.695312 -78.410156 47.40625 -81.203125 C 45.113281 -84.003906 42.144531 -85.976562 38.5 -87.125 C 34.863281 -88.269531 30.96875 -88.84375 26.8125 -88.84375 L 14.484375 -88.84375 L 14.484375 -80.953125 C 14.484375 -76.296875 15.015625 -72.144531 16.078125 -68.5 C 17.140625 -64.851562 18.554688 -61.632812 20.328125 -58.84375 C 22.109375 -56.21875 24.269531 -54.078125 26.8125 -52.421875 C 29.351562 -50.773438 32.066406 -49.953125 34.953125 -49.953125 L 35.84375 -49.953125 C 39.90625 -50.203125 43.421875 -51.894531 46.390625 -55.03125 C 49.359375 -58.164062 50.84375 -63.082031 50.84375 -69.78125 Z M 50.84375 -69.78125 "/></g></g><g style="fill:#191c5d;fill-opacity:1;"><g transform="translate(279.315008, 302.733438)"><path style="stroke:none" d="M 14.234375 -59.859375 L 14.234375 -1.015625 L 35.71875 -1.015625 C 41.21875 -1.015625 45.722656 -2.367188 49.234375 -5.078125 C 52.753906 -7.796875 55.660156 -12.375 57.953125 -18.8125 L 55.03125 0 L 4.453125 0 L 4.453125 -89.734375 L 55.796875 -89.734375 L 55.796875 -79.5625 C 52.828125 -82.4375 49.941406 -84.53125 47.140625 -85.84375 C 44.347656 -87.164062 41.191406 -87.992188 37.671875 -88.328125 C 34.160156 -88.671875 29.820312 -88.84375 24.65625 -88.84375 L 14.234375 -88.84375 L 14.234375 -68.25 C 14.234375 -62.488281 15.207031 -58.082031 17.15625 -55.03125 C 19.101562 -51.976562 22.023438 -49.921875 25.921875 -48.859375 C 29.828125 -47.804688 34.703125 -47.28125 40.546875 -47.28125 L 40.546875 -37.234375 C 38.679688 -39.359375 36.457031 -41.03125 33.875 -42.25 C 31.289062 -43.476562 28.660156 -44.75 25.984375 -46.0625 C 23.316406 -47.382812 20.921875 -49.082031 18.796875 -51.15625 C 16.679688 -53.226562 15.160156 -56.128906 14.234375 -59.859375 Z M 14.234375 -59.859375 "/></g></g><g clip-rule="nonzero" clip-path="url(#82a60139bc)"><path style=" stroke:none;fill-rule:nonzero;fill:#191c5d;fill-opacity:1;" d="M 248.0625 102.214844 C 246.488281 115.496094 245.214844 116.769531 231.9375 118.339844 C 231.964844 118.34375 231.992188 118.347656 232.019531 118.351562 C 245.21875 119.917969 246.492188 121.214844 248.0625 134.464844 C 249.632812 121.1875 250.90625 119.914062 264.1875 118.339844 C 250.90625 116.769531 249.632812 115.496094 248.0625 102.214844 Z M 248.0625 102.214844 "/></g></g></svg>